<svg width="100" height="100" viewBox="0 0 100 100" fill="none" xmlns="http://www.w3.org/2000/svg">
<path fill-rule="evenodd" clip-rule="evenodd" d="M50 100C77.6142 100 100 77.6151 100 50C100 22.386 77.6142 0 50 0C22.3857 0 0 22.386 0 50C0 77.6151 22.3857 100 50 100ZM55.6978 53.0602V81.9236H43.1972V53.0602H33.8219V40.2322H43.1972V32.857C43.1972 23.0979 48.51 17.7839 56.9947 17.7839C61.0574 17.7839 65.0732 18.0946 65.0732 18.2333V27.4043H60.398C55.7822 27.4043 55.6978 30.6817 55.6978 33.9849V40.2322H65.8919L64.4606 53.0602H55.6978Z" fill="black"/>
</svg>
