<svg width="100" height="100" viewBox="0 0 100 100" fill="none" xmlns="http://www.w3.org/2000/svg">
<path fill-rule="evenodd" clip-rule="evenodd" d="M50 100C77.6142 100 100 77.6151 100 50C100 22.386 77.6142 0 50 0C22.3857 0 0 22.386 0 50C0 77.6151 22.3857 100 50 100ZM67.1883 49.8538C67.1883 59.4269 59.4277 67.1882 49.8546 67.1882C40.2816 67.1882 32.5209 59.4269 32.5209 49.8538C32.5209 40.2806 40.2816 32.5204 49.8546 32.5204C59.4277 32.5204 67.1883 40.2806 67.1883 49.8538ZM61.4104 49.8538C61.4104 56.2366 56.2366 61.4097 49.8546 61.4097C43.4725 61.4097 38.2989 56.2366 38.2989 49.8538C38.2989 43.472 43.4725 38.2979 49.8546 38.2979C56.2366 38.2979 61.4104 43.472 61.4104 49.8538ZM67.1883 29.6312C65.5927 29.6312 64.2994 30.9247 64.2994 32.5204C64.2994 34.1161 65.5927 35.4097 67.1883 35.4097C68.7839 35.4097 70.0772 34.1161 70.0772 32.5204C70.0772 30.9247 68.7839 29.6312 67.1883 29.6312ZM18.0758 45.8097C18.0758 36.1021 18.0758 31.2484 19.9651 27.5398C21.6269 24.2785 24.2786 21.6269 27.5402 19.9645C31.248 18.0753 36.1019 18.0753 45.8097 18.0753H53.8987C63.6065 18.0753 68.4605 18.0753 72.1682 19.9645C75.4298 21.6269 78.0815 24.2785 79.7432 27.5398C81.6327 31.2484 81.6327 36.1021 81.6327 45.8097V53.8989C81.6327 63.6065 81.6327 68.4602 79.7432 72.1677C78.0815 75.4301 75.4298 78.0817 72.1682 79.743C68.4605 81.6323 63.6065 81.6323 53.8988 81.6323H45.8097C36.102 81.6323 31.248 81.6323 27.5402 79.743C24.2786 78.0817 21.6269 75.4301 19.9651 72.1677C18.0758 68.4602 18.0758 63.6065 18.0758 53.8989V45.8097ZM45.8097 23.8538H53.8987C58.848 23.8538 62.2122 23.8581 64.8128 24.071C67.3462 24.2774 68.6416 24.6527 69.5453 25.1129C71.7195 26.2215 73.4872 27.9893 74.5952 30.1634C75.0556 31.0667 75.4309 32.3624 75.6377 34.8957C75.8501 37.4957 75.8547 40.8602 75.8547 45.8097V53.8989C75.8547 58.8484 75.8501 62.2118 75.6377 64.8129C75.4309 67.3462 75.0556 68.6419 74.5952 69.5452C73.4872 71.7194 71.7195 73.4871 69.5453 74.5957C68.6416 75.0559 67.3462 75.4312 64.8128 75.6376C62.2122 75.8505 58.848 75.8548 53.8987 75.8548H45.8097C40.8605 75.8548 37.496 75.8505 34.8954 75.6376C32.3623 75.4312 31.067 75.0559 30.1633 74.5957C27.9889 73.4871 26.2211 71.7194 25.1132 69.5452C24.6527 68.6419 24.2776 67.3462 24.0706 64.8129C23.8582 62.2118 23.8537 58.8484 23.8537 53.8989V45.8097C23.8537 40.8602 23.8582 37.4957 24.0706 34.8957C24.2776 32.3624 24.6527 31.0667 25.1132 30.1634C26.2211 27.9893 27.9889 26.2215 30.1633 25.1129C31.067 24.6527 32.3623 24.2774 34.8954 24.071C37.496 23.8581 40.8605 23.8538 45.8097 23.8538Z" fill="black"/>
</svg>
