<svg width="100" height="100" viewBox="0 0 100 100" fill="none" xmlns="http://www.w3.org/2000/svg">
<path fill-rule="evenodd" clip-rule="evenodd" d="M50 100C77.6143 100 100 77.6143 100 50C100 22.3857 77.6143 0 50 0C22.3857 0 0 22.3857 0 50C0 77.6143 22.3857 100 50 100ZM38.5981 38.248H70.9087C71.5732 38.248 72.1108 38.4922 72.521 38.9805C72.7632 39.2686 72.9136 39.5801 72.9722 39.915C73.0127 40.1484 73.0088 40.3936 72.9609 40.6504L71.0259 53.4854C70.9478 53.9932 70.7227 54.4033 70.3516 54.7158C69.98 55.0283 69.54 55.1846 69.0322 55.1846H42.0576C41.8496 55.1553 41.6646 55.2041 41.5015 55.333C41.4502 55.373 41.4009 55.4219 41.354 55.4775C41.1587 55.7119 41.0806 55.9854 41.1196 56.2979L41.7061 59.4629C41.7383 59.623 41.8159 59.7705 41.9399 59.9043C41.9673 59.9336 41.9966 59.9619 42.0283 59.9902C42.2046 60.1465 42.4097 60.2246 42.644 60.2246H67.2144C67.8008 60.2246 68.3086 60.4297 68.7388 60.8398C69.1689 61.25 69.3838 61.748 69.3838 62.334V62.8027C69.3838 63.3887 69.1787 63.8867 68.7681 64.2979C68.3579 64.708 67.8594 64.9131 67.2729 64.9131H66.2759C67.1362 65.8896 67.5464 67.0322 67.5073 68.3408C67.4683 69.6494 66.9795 70.7539 66.0415 71.6523C65.103 72.5508 63.9795 73 62.6694 73C61.3599 73 60.2363 72.5508 59.2979 71.6523C58.3599 70.7539 57.8613 69.6494 57.8027 68.3408C57.7441 67.0322 58.1641 65.8896 59.0635 64.9131H48.1562C49.0557 65.8896 49.4854 67.0322 49.4463 68.3408C49.4238 69.0889 49.2515 69.7705 48.9287 70.3848C48.687 70.8447 48.3613 71.2676 47.9512 71.6523C46.9932 72.5508 45.8599 73 44.5498 73C43.2402 73 42.1167 72.5508 41.1782 71.6523C40.2402 70.7539 39.7515 69.6494 39.7124 68.3408C39.6733 67.0322 40.0835 65.8896 40.9438 64.9131H39.9468C39.5557 64.9131 39.2041 64.8154 38.8911 64.6201C38.4854 64.4053 38.1821 64.1182 37.9805 63.7578C37.8516 63.5273 37.7646 63.2676 37.7188 62.9785L31.7373 31.0986C31.6982 30.9424 31.6201 30.8154 31.5029 30.7178C31.4219 30.6504 31.3315 30.6055 31.2319 30.585C31.187 30.5762 31.1406 30.5713 31.0923 30.5713H25.1108C24.7158 30.5713 24.3608 30.4736 24.0459 30.2793C23.8931 30.1846 23.7495 30.0674 23.6157 29.9268C23.2051 29.4971 23 28.9893 23 28.4023V28.1094C23 27.5234 23.2051 27.0254 23.6157 26.6152C24.0264 26.2051 24.5244 26 25.1108 26H33.6724C34.2197 26 34.689 26.166 35.0796 26.498C35.4707 26.8301 35.7051 27.2695 35.7832 27.8164L37.6597 37.4277C37.6787 37.542 37.7139 37.6465 37.7656 37.7422C37.8198 37.8428 37.8921 37.9336 37.9824 38.0137C38.1582 38.1699 38.3638 38.248 38.5981 38.248Z" fill="black"/>
</svg>
