<svg width="88" height="88" viewBox="0 0 88 88" fill="none" xmlns="http://www.w3.org/2000/svg">
<path fill-rule="evenodd" clip-rule="evenodd" d="M43.6806 87.3268C67.8048 87.3268 87.3613 67.7787 87.3613 43.6634C87.3613 19.549 67.8048 0 43.6806 0C19.5564 0 0 19.549 0 43.6634C0 67.7787 19.5564 87.3268 43.6806 87.3268ZM25.4006 57.6357C15.3049 47.5959 15.3049 31.3184 25.4006 21.2786C35.4963 11.2389 51.8649 11.2389 61.9606 21.2786C72.0563 31.3184 72.0563 47.5959 61.9606 57.6357L47.5181 71.9986C46.5003 73.0108 45.1199 73.5789 43.6806 73.5789C42.2412 73.5789 40.8609 73.0108 39.8433 71.9986L25.4006 57.6357ZM34.2799 39.4567C34.2799 44.6202 38.4887 48.8054 43.6806 48.8054C48.8724 48.8054 53.0812 44.6202 53.0812 39.4567C53.0812 34.2941 48.8724 30.108 43.6806 30.108C38.4887 30.108 34.2799 34.2941 34.2799 39.4567Z" fill="black"/>
</svg>
