<svg width="88" height="88" viewBox="0 0 88 88" fill="none" xmlns="http://www.w3.org/2000/svg">
<path fill-rule="evenodd" clip-rule="evenodd" d="M43.6806 87.3272C67.8048 87.3272 87.3613 67.7783 87.3613 43.6636C87.3613 19.5488 67.8048 0 43.6806 0C19.5564 0 0 19.5488 0 43.6636C0 67.7783 19.5564 87.3272 43.6806 87.3272ZM37.542 25.1035C35.4163 22.0666 32.9301 18.8903 29.7395 16.5644C28.5196 15.6751 26.9763 15.5752 25.7021 16.1209C20.2721 18.4466 15.5734 24.4027 15.7991 30.5326L15.8458 31.3717L15.9018 32.0221L15.9825 32.7419L16.0917 33.528L16.2332 34.3777C16.2861 34.6711 16.3451 34.9746 16.4108 35.2877L16.6284 36.2553L16.8902 37.2774L17.1997 38.351L17.5609 39.4733C19.3085 44.6283 22.7447 51.1698 29.4604 57.8813C36.1761 64.5929 42.7215 68.027 47.8798 69.7735L49.0028 70.1344L50.0772 70.4437L51.0998 70.7052C51.2658 70.745 51.4296 70.7831 51.5909 70.8193L52.5308 71.0163C52.6826 71.0459 52.8318 71.0739 52.9787 71.1004L53.8288 71.2417L54.6155 71.3508L55.3357 71.4314L55.9865 71.4875L56.8261 71.5341C62.9804 71.7606 68.8967 67.1176 71.2346 61.6658C71.8036 60.3384 71.662 58.7413 70.7076 57.52C67.8656 53.8826 64.1442 51.1546 60.6842 48.7536L58.8296 47.4729C56.9837 46.1962 54.4445 46.5912 53.0843 48.3996L49.5382 53.7982C49.1447 54.3971 48.3623 54.6028 47.74 54.2474C45.3407 52.8759 41.8419 50.5384 39.325 48.023C36.8105 45.5101 34.6132 42.1713 33.38 39.9276C33.0559 39.3382 33.2356 38.6094 33.7758 38.2082L39.2269 34.1625C40.853 32.7561 41.1387 30.367 39.9419 28.6173L38.777 26.9008L37.542 25.1035Z" fill="black"/>
</svg>
