<svg width="100" height="100" viewBox="0 0 100 100" fill="none" xmlns="http://www.w3.org/2000/svg">
<path fill-rule="evenodd" clip-rule="evenodd" d="M50 100C77.6151 100 100 77.6142 100 50C100 22.3857 77.6151 0 50 0C22.386 0 0 22.3857 0 50C0 77.6142 22.386 100 50 100ZM70.9419 22.8126C74.0871 24.9858 76.2344 28.0576 77.3194 31.9465C78.914 37.6654 79.3742 43.9888 78.7237 51.2763C78.3548 55.4212 77.3731 59.0759 75.714 62.4527C74.1247 65.688 71.4785 68.1008 67.8559 69.6203C63.8968 71.2761 59.6946 71.6302 56.0667 71.8262C53.0731 71.9897 50.0581 72.104 47.1075 72.164C46.7226 72.1694 46.7226 72.1694 46.3484 72.6051L46.0495 72.9373C43.8645 75.3339 37.7366 81.2815 37.471 81.532L37.0688 81.9242H34.5968L34.586 80.5407C34.586 80.5407 34.5473 74.0594 34.586 70.7532C34.5914 70.3721 34.5914 70.3339 34.1355 70.1215C33.6419 69.8873 33.0398 69.6749 32.4215 69.457C31.3312 69.0702 30.2032 68.6672 29.3247 68.1118C25.871 65.9277 23.5441 62.6052 22.2097 57.9538C20.843 53.1827 20.4097 48.0356 20.8871 42.2187C21.0925 39.7024 21.4505 37.0663 21.9828 34.1469C23.072 28.1393 26.6409 23.7004 32.5849 20.9553C35.6161 19.5555 38.9398 18.6896 43.3548 18.1449C48.0678 17.5676 53.0075 17.682 58.4634 18.499C62.4054 19.0926 66.972 20.0621 70.9419 22.8126ZM60.4043 63.4767C62.0043 62.8067 63.3602 61.7719 64.271 60.285C65.5129 58.2425 65.5301 56.8264 63.485 55.3177C62.9548 54.9273 62.428 54.5308 61.9 54.1342C61.0957 53.5293 60.2903 52.924 59.4721 52.3385C57.4054 50.8678 55.1656 50.6119 53.6258 53.1935C53.5613 53.3057 53.4634 53.4018 53.3688 53.4956C53.3538 53.5112 53.3376 53.5267 53.3226 53.5421C52.5355 54.381 51.5656 54.5933 50.5344 54.1685C46.6247 52.5508 43.5989 49.9419 41.7764 46.0585C40.7086 43.7765 41.0011 42.6272 43.0075 41.113C43.2086 40.9606 43.3979 40.8081 43.5828 40.6392C44.4613 39.8332 44.6946 38.8746 44.1785 37.7907C42.9968 35.3179 41.429 33.112 39.4441 31.2166C38.729 30.5249 37.872 30.1818 36.9065 30.3997C34.3796 30.9552 31.8796 32.8016 31.8086 36.075C31.8333 36.2239 31.8495 36.3763 31.8645 36.5283C31.8968 36.8435 31.929 37.1574 32.0419 37.4366C32.2538 37.9567 32.4581 38.481 32.6624 39.0056C33.2548 40.5249 33.8484 42.0463 34.6183 43.4714C39.629 52.785 47.2161 59.261 56.8849 63.3732C58.0398 63.8634 59.2333 63.9668 60.4043 63.4767ZM50.0849 34.6317C50.5344 34.5554 50.9903 34.5173 51.4462 34.5173C55.9258 34.5173 59.5753 38.1828 59.5753 42.6816C59.5753 43.1447 59.5366 43.6022 59.4613 44.0487C59.3366 44.8058 59.8462 45.5248 60.6 45.65C60.6817 45.6664 60.757 45.6718 60.8333 45.6718C61.5 45.6718 62.086 45.1871 62.2 44.5063C62.3032 43.9126 62.3516 43.2971 62.3516 42.6816C62.3516 36.6415 57.4602 31.7287 51.4462 31.7287C50.8387 31.7287 50.2258 31.7776 49.629 31.8812C48.8699 32.0064 48.3602 32.7253 48.485 33.4824C48.6151 34.2449 49.3258 34.7569 50.0849 34.6317ZM56.7989 44.2775C57.5634 44.2775 58.1871 43.6512 58.1871 42.8831C58.1871 39.0379 55.0742 35.9116 51.2452 35.9116C50.4807 35.9116 49.857 36.5379 49.857 37.3059C49.857 38.0739 50.4807 38.7003 51.2452 38.7003C53.5387 38.7003 55.4097 40.5793 55.4097 42.8831C55.4097 43.6512 56.0333 44.2775 56.7989 44.2775ZM64.7591 47.0661C65.3935 47.0661 65.9688 46.6304 66.1151 45.9823C66.3591 44.8875 66.4839 43.7601 66.4839 42.6272C66.4839 34.3103 59.7484 27.5457 51.4678 27.5457C50.3398 27.5457 49.2172 27.671 48.1323 27.9215C47.3839 28.0903 46.9118 28.8365 47.086 29.5882C47.2538 30.3398 47.9968 30.8136 48.7452 30.6393C49.629 30.4378 50.5452 30.3343 51.4678 30.3343C58.214 30.3343 63.7075 35.8517 63.7075 42.6272C63.7075 43.5532 63.6043 44.4736 63.4032 45.3614C63.2355 46.113 63.7021 46.8592 64.4505 47.0335C64.5538 47.0553 64.657 47.0661 64.7591 47.0661Z" fill="black"/>
</svg>
