<svg width="100" height="100" viewBox="0 0 100 100" fill="none" xmlns="http://www.w3.org/2000/svg">
<path fill-rule="evenodd" clip-rule="evenodd" d="M50 100C77.6151 100 100 77.6142 100 50C100 22.3857 77.6151 0 50 0C22.386 0 0 22.3857 0 50C0 77.6142 22.386 100 50 100ZM62.4301 67.8241C64.8914 67.2924 67.9774 65.4742 68.7538 63.2765C69.5301 61.0788 69.5301 59.2039 69.3011 58.8075C68.9925 58.263 61.6634 54.8592 61.086 54.6594C60.2323 54.3372 59.4172 54.4506 58.7763 55.3594C58.6548 55.5298 58.5333 55.7003 58.4118 55.87C57.6323 56.9656 56.8796 58.0218 56.257 58.6943C55.6903 59.3002 54.7624 59.3752 53.986 59.053C53.9011 59.0177 53.8043 58.9786 53.6957 58.9347C52.4656 58.4378 49.7355 57.3357 46.4312 54.392C43.6484 51.9139 41.7538 48.8267 41.2065 47.8985C40.6634 46.9663 41.1323 46.4182 41.5624 45.9158L41.5828 45.8913C41.8903 45.51 42.2237 45.1569 42.5452 44.8163C43.6495 43.6458 44.614 42.624 43.8925 41.1187C43.7237 40.7641 42.6194 38.0851 41.7495 35.9737C41.4581 35.2649 41.1914 34.6201 40.9968 34.1487C40.3333 32.5567 39.8882 32.5174 37.872 32.5174C33.6806 32.5174 31.2839 37.3581 31.2839 41.5152C31.2839 49.6811 42.8301 61.9521 51.1441 65.397C58.5473 68.4649 60.7452 68.1819 62.4301 67.8241ZM49.9914 17.7844H50.0075C67.7677 17.7844 82.2172 32.2343 82.2172 50.0001C82.2172 67.7659 67.7677 82.2159 50.0075 82.2159C43.4581 82.2159 37.3785 80.2666 32.2849 76.8959L19.9054 80.852L23.9194 68.8812C20.0559 63.5802 17.7849 57.0446 17.7849 50.0001C17.7849 32.2343 32.2312 17.7844 49.9914 17.7844Z" fill="black"/>
</svg>
